<?xml version="1.0" encoding="utf-8"?>
<!-- Generator: Adobe Illustrator 16.0.0, SVG Export Plug-In . SVG Version: 6.00 Build 0)  -->
<!DOCTYPE svg PUBLIC "-//W3C//DTD SVG 1.1//EN" "http://www.w3.org/Graphics/SVG/1.1/DTD/svg11.dtd">
<svg version="1.1" id="Capa_1" xmlns="http://www.w3.org/2000/svg" xmlns:xlink="http://www.w3.org/1999/xlink" x="0px" y="0px"
	 width="512px" height="512px" viewBox="0 0 512 512" enable-background="new 0 0 512 512" xml:space="preserve">
<g>
	<path fill="#1DA1F2" stroke="#1DA1F2" stroke-width="4" stroke-miterlimit="10" d="M57.397,300.295
		c6.431,1.28,12.99,1.952,19.772,1.952c9.598,0,18.876-1.313,27.675-3.68c-34.358-6.913-62.665-30.616-75.997-62.172
		C28.297,242.859,28,249.394,28,256c0,58.87,22.308,112.52,58.926,152.969c25.173-7.663,48.353-19.888,68.566-35.728
		C109.548,372.409,70.771,342.047,57.397,300.295z"/>
	<path fill="#1DA1F2" stroke="#1DA1F2" stroke-width="4" stroke-miterlimit="10" d="M68.18,207.448
		C57.48,200.3,48.172,191.22,40.737,180.715c-2.295,6.564-4.299,13.263-5.995,20.086C45.204,204.73,56.453,207.057,68.18,207.448z"
		/>
	<path fill="#1DA1F2" stroke="#1DA1F2" stroke-width="4" stroke-miterlimit="10" d="M252.144,176.991
		c-1.792-7.68-2.72-15.71-2.72-23.932c0-56.439,44.576-102.5,100.457-104.899C321.251,35.21,289.469,28,256,28
		c-70.949,0-134.322,32.399-176.137,83.21C127.445,149.615,187.041,173.721,252.144,176.991z"/>
	<path fill="#1DA1F2" stroke="#1DA1F2" stroke-width="4" stroke-miterlimit="10" d="M459.818,165.121
		c0,138.468-105.125,298.074-297.481,298.815C190.91,476.825,222.616,484,256,484c125.93,0,228-102.063,228-228
		c0-37.028-8.833-71.988-24.492-102.901L459.818,165.121z"/>
</g>
<g>
	<g>
		<g>
			<path fill="#1DA1F2" d="M249.325,389.094c-9.884,0-19.233-4.528-25.244-12.297l-81.168-104.973
				c-10.557-13.652-7.809-33.091,6.133-43.435c13.964-10.348,33.802-7.638,44.364,6.005l53.385,69.034l134.269-211.12
				c9.243-14.525,28.763-18.969,43.628-9.929c14.846,9.048,19.38,28.177,10.13,42.715L276.209,374.481
				c-5.51,8.67-15.022,14.124-25.439,14.586C250.284,389.085,249.806,389.094,249.325,389.094z"/>
		</g>
	</g>
</g>
</svg>
