<?xml version="1.0" encoding="utf-8"?>
<!-- Generator: Adobe Illustrator 16.0.0, SVG Export Plug-In . SVG Version: 6.00 Build 0)  -->
<!DOCTYPE svg PUBLIC "-//W3C//DTD SVG 1.1//EN" "http://www.w3.org/Graphics/SVG/1.1/DTD/svg11.dtd">
<svg version="1.1" id="Calque_1" xmlns="http://www.w3.org/2000/svg" xmlns:xlink="http://www.w3.org/1999/xlink" x="0px" y="0px"
	 width="1020.48px" height="259.486px" viewBox="0 0 1020.48 259.486" enable-background="new 0 0 1020.48 259.486"
	 xml:space="preserve">
<g>
	<line fill="none" stroke="#DADADA" stroke-width="3" stroke-miterlimit="10" x1="301.99" y1="257.304" x2="301.99" y2="2.185"/>
	<g>
		<g>
			<g>
				<path fill="#409BD6" stroke="#409BD6" stroke-width="4" stroke-miterlimit="10" d="M23.146,153.518
					c3.452,0.688,6.973,1.047,10.612,1.047c5.152,0,10.132-0.704,14.854-1.975c-18.44-3.711-33.634-16.432-40.789-33.37
					c-0.296,3.469-0.455,6.977-0.455,10.523c0,31.597,11.974,60.392,31.627,82.103c13.512-4.113,25.952-10.675,36.802-19.177
					C51.138,192.223,30.325,175.927,23.146,153.518z"/>
				<path fill="#409BD6" stroke="#409BD6" stroke-width="4" stroke-miterlimit="10" d="M28.935,103.684
					c-5.742-3.836-10.739-8.71-14.729-14.348c-1.231,3.521-2.308,7.119-3.218,10.781C16.603,102.225,22.641,103.474,28.935,103.684z
					"/>
				<path fill="#409BD6" stroke="#409BD6" stroke-width="4" stroke-miterlimit="10" d="M127.674,87.337
					c-0.963-4.123-1.461-8.434-1.461-12.845c0-30.292,23.926-55.016,53.918-56.303C164.765,11.24,147.706,7.37,129.743,7.37
					c-38.081,0-72.095,17.389-94.538,44.661C60.744,72.644,92.73,85.582,127.674,87.337z"/>
				<path fill="#409BD6" stroke="#409BD6" stroke-width="4" stroke-miterlimit="10" d="M239.138,80.966
					c0,74.319-56.424,159.984-159.666,160.382c15.336,6.918,32.354,10.771,50.271,10.771c67.59,0,122.373-54.781,122.373-122.374
					c0-19.875-4.74-38.639-13.146-55.23L239.138,80.966z"/>
			</g>
			<g>
				<g>
					<g>
						<path fill="#409BD6" d="M126.16,201.179c-5.305,0-10.323-2.431-13.549-6.6l-43.565-56.343
							c-5.666-7.327-4.191-17.761,3.292-23.313c7.494-5.554,18.142-4.099,23.812,3.223l28.652,37.053l72.066-113.314
							c4.961-7.796,15.438-10.181,23.417-5.329c7.968,4.856,10.401,15.124,5.437,22.926L140.59,193.335
							c-2.958,4.652-8.063,7.581-13.654,7.829C126.675,201.174,126.419,201.179,126.16,201.179z"/>
					</g>
				</g>
			</g>
		</g>
		<g>
			<path fill="#409BD6" stroke="#409BD6" stroke-miterlimit="10" d="M404.048,49.211h-22.445v60.488h-1.648V49.211h-21.167v-1.647
				h45.26V49.211L404.048,49.211z"/>
			<path fill="#409BD6" stroke="#409BD6" stroke-miterlimit="10" d="M536.528,47.541l-21.744,62.158h-1.89l-14.205-52.167
				l-14.174,52.167h-1.896l-21.74-62.158h1.521l21.107,60.29l14.748-54.253h0.876l14.764,54.253l21.083-60.289L536.528,47.541z"/>
			<path fill="#409BD6" stroke="#409BD6" stroke-miterlimit="10" d="M593.949,47.54h1.65v62.159h-1.65V47.54z"/>
			<path fill="#409BD6" stroke="#409BD6" stroke-miterlimit="10" d="M706.334,49.211h-22.457v60.488h-1.648V49.211h-21.17v-1.647
				h45.275V49.211z"/>
			<path fill="#409BD6" stroke="#409BD6" stroke-miterlimit="10" d="M808.244,49.211h-22.446v60.488h-1.646V49.211h-21.165v-1.647
				h45.258V49.211z"/>
			<path fill="#409BD6" stroke="#409BD6" stroke-miterlimit="10" d="M867.04,109.698V47.54h36.008v1.646l-34.355-0.001v28.023
				l1.678-0.663c0.826-0.317,1.804-0.495,2.967-0.495h29.711v1.645h-29.711c-1.461,0-2.806,0.307-3.704,1.283
				c-0.876,0.966-0.929,2.083-0.94,2.533v26.539l34.354,0.004l0.002,1.645L867.04,109.698L867.04,109.698z"/>
			<path fill="#409BD6" stroke="#409BD6" stroke-miterlimit="10" d="M1002.944,109.698l-12.391-27.886l-0.033-0.058
				c-2.16-3.742-4.961-4.027-5.376-4.027l-15.424,0.004c-1.464,0-2.802,0.308-3.697,1.284c-0.752,0.824-0.894,1.784-0.936,2.275
				l-0.006,0.055v28.352h-1.651V47.539h25.402c8.277,0,15.032,6.835,15.032,15.13c0,7.32-5.264,13.437-12.198,14.767l-2.002,0.381
				l1.262,1.6c0.431,0.542,0.906,1.276,1.281,1.981l12.563,28.3L1002.944,109.698L1002.944,109.698z M969.4,76.09l19.433-0.032
				c7.383,0,13.383-6.003,13.383-13.386c0-7.373-5.982-13.459-13.375-13.459l-23.759-0.001v28.025l1.685-0.656
				C967.5,76.291,968.406,76.117,969.4,76.09z"/>
			<path fill="#409BD6" d="M395.982,171.72v8.252h-28.75c-0.855,0-1.24,0.188-1.269,0.211c-0.05,0.09-0.083,0.342-0.087,0.41v31.346
				h-8.245v-68.756h44.696l0.002,8.252h-36.453v20.35c0.136-0.01,0.558-0.035,0.855-0.064H395.982L395.982,171.72z"/>
			<path fill="#409BD6" d="M399.572,211.948l23.998-68.738h6.739l23.97,68.738l-8.646-0.014l-8.478-24.309
				c-1.465,0.371-2.914,0.514-4.625,0.514h-12.219c-3.449,0-4.413,1.932-4.574,2.256l-7.522,21.539L399.572,211.948z
				 M419.365,180.007c0.339-0.02,0.623-0.025,0.949-0.025h12.221c0.803,0,1.586-0.068,1.916-0.119l-7.512-21.557L419.365,180.007z"
				/>
			<path fill="#409BD6" d="M478.181,209.089c-3.401-1.801-6.428-4.354-8.988-7.553c-5.189-6.486-7.997-14.994-7.997-23.977
				c0-8.965,2.808-17.471,7.997-23.965c2.561-3.191,5.584-5.744,8.988-7.547c3.566-1.881,7.406-2.867,11.354-2.867
				c4.564,0,9.086,1.348,13.072,3.852c3.797,2.402,7.114,5.83,9.646,9.947l2.167,3.521l-7.054,4.348l-2.17-3.527
				c-3.943-6.416-9.67-9.844-15.662-9.844c-10.635,0-20.055,11.279-20.055,26.082c0,14.82,9.42,26.1,20.055,26.1
				c5.994,0,11.719-3.443,15.662-9.85l2.17-3.521l7.054,4.342l-2.167,3.527c-2.532,4.111-5.853,7.545-9.646,9.934
				c-3.986,2.514-8.508,3.848-13.072,3.848C485.587,211.939,481.748,210.97,478.181,209.089z"/>
			<path fill="#409BD6" d="M572.008,151.448h-22.442v60.494h-8.244v-60.494h-21.17v-8.234h51.856V151.448L572.008,151.448z"/>
			<path fill="#409BD6" d="M624.79,209.089c-3.4-1.801-6.431-4.354-8.995-7.553c-5.18-6.486-7.992-14.994-7.992-23.977
				c0-8.965,2.813-17.471,7.992-23.965c2.564-3.191,5.593-5.744,8.995-7.547c3.567-1.881,7.409-2.867,11.344-2.867
				c4.574,0,9.098,1.348,13.077,3.852c3.797,2.402,7.121,5.83,9.64,9.947l2.181,3.521l-7.061,4.348l-2.164-3.527
				c-3.952-6.416-9.676-9.844-15.673-9.844c-10.628,0-20.053,11.279-20.053,26.082c0,14.82,9.425,26.1,20.053,26.1
				c5.999,0,11.723-3.443,15.673-9.85l2.164-3.521l7.061,4.342l-2.181,3.527c-2.519,4.111-5.845,7.545-9.64,9.934
				c-3.979,2.514-8.503,3.848-13.077,3.848C632.199,211.939,628.357,210.97,624.79,209.089z"/>
			<path fill="#409BD6" d="M709.978,211.943v-32.605c-1.367,0.406-2.48,0.584-4.034,0.621l-21.063,0.002
				c-0.749,0-1.415,0.086-1.978,0.248c-0.807,0.227-1.449,0.58-1.977,1.088c-0.188,0.191-0.418,0.484-0.475,0.553v30.094h-8.251
				v-68.76h8.251v29.156c1.33-0.4,2.753-0.625,4.429-0.625h20.669c0.785,0,1.45-0.102,2.037-0.271
				c0.772-0.227,1.383-0.576,1.918-1.076c0.188-0.182,0.419-0.467,0.474-0.535v-26.65h8.251v68.758h-8.251V211.943z"/>
			<path fill="#409BD6" d="M731.825,211.939v-68.758h42.598l0.003,8.252l-34.369-0.002v20.334c0.626-0.057,0.86-0.063,1.354-0.063
				h33.013v8.232H741.41c-0.839,0-1.227,0.193-1.263,0.217c-0.032,0.053-0.087,0.299-0.091,0.369v23.182l34.357,0.004l0.014,8.232
				H731.825L731.825,211.939z"/>
			<path fill="#409BD6" d="M802.561,209.089c-3.4-1.801-6.433-4.354-8.989-7.553c-5.196-6.486-7.998-14.994-7.998-23.977
				c0-8.965,2.802-17.471,7.998-23.965c2.557-3.191,5.586-5.744,8.989-7.547c3.564-1.881,7.406-2.867,11.35-2.867
				c4.566,0,9.091,1.348,13.071,3.852c3.797,2.402,7.118,5.83,9.646,9.947l2.174,3.521l-7.058,4.348l-2.166-3.527
				c-3.946-6.416-9.676-9.844-15.667-9.844c-10.638,0-20.053,11.279-20.053,26.082c0,14.82,9.415,26.1,20.053,26.1
				c5.993,0,11.721-3.443,15.667-9.85l2.166-3.521l7.058,4.342l-2.174,3.527c-2.527,4.111-5.851,7.545-9.646,9.934
				c-3.98,2.514-8.505,3.848-13.071,3.848C809.967,211.939,806.128,210.97,802.561,209.089z"/>
			<path fill="#409BD6" d="M900.313,211.943h-12.186l-29.909-27.645v27.645h-8.247v-68.76h8.247v24.957l26.713-24.957h12.104
				l-35.042,32.705l-0.037,0.025c-0.117,0.102-0.26,0.23-0.333,0.318c0.069,0.07,0.073,0.072,0.075,0.074l0.04,0.037
				L900.313,211.943z"/>
			<path fill="#409BD6" d="M907.857,211.939v-68.758h42.603l0.003,8.252l-34.359-0.002v20.334c0.627-0.057,0.862-0.063,1.346-0.063
				h33.011v8.232h-33.011c-0.829,0-1.22,0.193-1.264,0.217c-0.021,0.053-0.075,0.299-0.082,0.369v23.182l34.351,0.004l0.011,8.232
				H907.857L907.857,211.939z"/>
			<path fill="#409BD6" d="M1003.434,211.943l-13.182-29.684c-1.242-2.074-2.392-2.258-2.566-2.283l-15.325,0.004
				c-0.841,0-1.228,0.18-1.27,0.217c-0.024,0.045-0.068,0.203-0.077,0.268v31.479h-8.242v-68.76h28.696
				c10.13,0,18.333,8.33,18.333,18.439c0,7.928-5.04,14.615-12.025,17.215l0.04,0.068l14.664,33.037H1003.434z M971.988,171.743
				l19.479-0.033c5.562,0,10.088-4.531,10.088-10.088c0-5.584-4.533-10.172-10.077-10.172h-20.463v20.352
				C971.36,171.767,971.604,171.755,971.988,171.743z"/>
		</g>
	</g>
</g>
</svg>
